<svg width="36" height="32" viewBox="0 0 36 32" fill="none" xmlns="http://www.w3.org/2000/svg">
  <path fill-rule="evenodd" clip-rule="evenodd" d="M3.88285 2.42455H7.73994C9.16044 2.42455 10.3116 3.52666 10.3116 4.88622V25.8092H3.88285C2.46305 25.8092 1.31121 24.7072 1.31121 23.3477V4.88622C1.31121 3.52666 2.46305 2.42455 3.88285 2.42455Z" fill="#8C96A9"/>
  <path fill-rule="evenodd" clip-rule="evenodd" d="M19.3113 2.42455H23.1684C24.5889 2.42455 25.7401 3.52666 25.7401 4.88622V25.8092H16.7404V4.88622C16.7404 3.52666 17.8916 2.42455 19.3113 2.42455Z" fill="#8C96A9"/>
  <path d="M9.02546 9.30928H8.52546V9.80928V28.2707C8.52546 29.9269 9.92208 31.2322 11.5971 31.2322H15.4542C17.13 31.2322 18.5258 29.9268 18.5258 28.2707V9.80928V9.30928H18.0258H9.02546Z" stroke="#8C96A9"/>
  <path d="M24.4547 9.30928H23.9547V9.80928V28.2707C23.9547 29.9267 25.3504 31.2322 27.0256 31.2322H30.8834C32.5586 31.2322 33.9543 29.9267 33.9543 28.2707V12.2708C33.9543 10.6148 32.5586 9.30928 30.8834 9.30928H24.4547Z" stroke="#8C96A9"/>
</svg>
