<svg width="44" height="44" viewBox="0 0 44 44" fill="none" xmlns="http://www.w3.org/2000/svg">
  <path d="M37.5095 43.3523L37.5095 29.7907L43.3523 29.7907C43.4374 29.7907 43.5216 29.774 43.6002 29.7415C43.6788 29.7089 43.7503 29.6612 43.8104 29.6011C43.8706 29.5409 43.9183 29.4695 43.9508 29.3909C43.9833 29.3123 44 29.228 44 29.143L44 14.857C44 14.772 43.9833 14.6877 43.9508 14.6091C43.9183 14.5305 43.8706 14.4591 43.8104 14.3989C43.7503 14.3388 43.6788 14.2911 43.6002 14.2585C43.5216 14.226 43.4374 14.2093 43.3523 14.2093L40.7549 14.2093L40.7549 0.647679C40.7549 0.475904 40.6867 0.311164 40.5652 0.189701C40.4438 0.0682371 40.279 -1.62648e-07 40.1073 -1.70157e-07L3.89274 -1.75314e-06C3.72096 -1.76065e-06 3.55622 0.0682355 3.43476 0.189699C3.3133 0.311162 3.24506 0.475902 3.24506 0.647677L3.24506 14.857C3.24506 15.0288 3.3133 15.1935 3.43476 15.315C3.55622 15.4365 3.72096 15.5047 3.89274 15.5047L6.49049 15.5047L6.49049 28.4953L0.647681 28.4953C0.562609 28.4952 0.478366 28.512 0.399764 28.5445C0.321162 28.577 0.249743 28.6247 0.189593 28.6849C0.129439 28.745 0.0817324 28.8165 0.0492007 28.8951C0.016669 28.9737 -4.70465e-05 29.0579 -1.27388e-06 29.143L-1.89499e-06 43.3523C-4.76751e-05 43.4374 0.0166683 43.5216 0.0492001 43.6002C0.0817318 43.6788 0.129438 43.7503 0.189592 43.8104C0.249742 43.8706 0.321161 43.9183 0.399763 43.9508C0.478365 43.9833 0.562609 44 0.64768 44L36.8618 44C37.0336 44 37.1983 43.9318 37.3198 43.8103C37.4413 43.6888 37.5095 43.5241 37.5095 43.3523ZM4.54042 14.2093L4.54042 6.15961L10.3836 6.15961C10.5554 6.15961 10.7201 6.09138 10.8416 5.96991C10.963 5.84845 11.0313 5.68371 11.0313 5.51193C11.0313 5.34016 10.963 5.17542 10.8416 5.05396C10.7201 4.93249 10.5554 4.86425 10.3836 4.86425L4.54042 4.86425L4.54042 1.29536L39.4596 1.29536L39.4596 4.86426L35.3429 4.86426C35.1712 4.86426 35.0064 4.93249 34.885 5.05396C34.7635 5.17542 34.6953 5.34016 34.6953 5.51194C34.6953 5.68371 34.7635 5.84845 34.885 5.96991C35.0064 6.09138 35.1712 6.15962 35.3429 6.15962L39.4596 6.15962L39.4596 9.50978L20.4974 9.50978C20.3256 9.50978 20.1609 9.57802 20.0394 9.69948C19.9179 9.82094 19.8497 9.98569 19.8497 10.1575C19.8497 10.3292 19.9179 10.494 20.0394 10.6154C20.1609 10.7369 20.3256 10.8051 20.4974 10.8051L39.4596 10.8051L39.4596 14.2101L4.54042 14.2101L4.54042 14.2093ZM42.7046 15.5047L42.7046 18.8852L35.3429 18.8852C35.1712 18.8852 35.0064 18.9535 34.885 19.0749C34.7635 19.1964 34.6953 19.3611 34.6953 19.5329C34.6953 19.7047 34.7635 19.8694 34.885 19.9909C35.0064 20.1123 35.1712 20.1806 35.3429 20.1806L42.7046 20.1806L42.7046 23.8194L28.8373 23.8194C28.6655 23.8194 28.5008 23.8877 28.3793 24.0091C28.2578 24.1306 28.1896 24.2953 28.1896 24.4671C28.1896 24.6389 28.2578 24.8036 28.3793 24.9251C28.5008 25.0465 28.6655 25.1148 28.8373 25.1148L42.7046 25.1148L42.7046 28.4953L7.78585 28.4953L7.78585 20.1806L21.2598 20.1806C21.4316 20.1806 21.5963 20.1123 21.7178 19.9909C21.8392 19.8694 21.9075 19.7047 21.9075 19.5329C21.9075 19.3611 21.8392 19.1964 21.7178 19.0749C21.5963 18.9535 21.4316 18.8852 21.2598 18.8852L7.78807 18.8852L7.78807 15.5047L42.7046 15.5047ZM1.29536 42.7046L1.29536 34.6575L7.13817 34.6575C7.30994 34.6575 7.47468 34.5893 7.59614 34.4678C7.71761 34.3463 7.78585 34.1816 7.78585 34.0098C7.78585 33.838 7.71761 33.6733 7.59614 33.5518C7.47468 33.4304 7.30994 33.3621 7.13817 33.3621L1.29536 33.3621L1.29536 29.7907L36.2142 29.7907L36.2142 38.0069L28.0234 38.0069C27.8516 38.0069 27.6869 38.0752 27.5654 38.1966C27.444 38.3181 27.3757 38.4828 27.3757 38.6546C27.3757 38.8264 27.444 38.9911 27.5654 39.1126C27.6869 39.2341 27.8516 39.3023 28.0234 39.3023L36.2142 39.3023L36.2142 42.7072L1.29536 42.7046Z" fill="#8C96A9"/>
  <path d="M28.2195 18.6691C28.2195 18.8421 28.2882 19.008 28.4106 19.1303C28.5329 19.2526 28.6988 19.3213 28.8717 19.3213L32.1398 19.3213C32.3128 19.3213 32.4787 19.2526 32.601 19.1303C32.7233 19.008 32.792 18.8421 32.792 18.6691C32.792 18.4961 32.7233 18.3302 32.601 18.2079C32.4787 18.0856 32.3128 18.0169 32.1398 18.0169L28.8717 18.0169C28.6988 18.0169 28.5329 18.0856 28.4106 18.2079C28.2882 18.3302 28.2195 18.4961 28.2195 18.6691Z" fill="#8C96A9"/>
  <path d="M19.2334 23.6378C19.2334 23.8108 19.3021 23.9767 19.4244 24.099C19.5467 24.2213 19.7126 24.29 19.8856 24.29L26.2711 24.29C26.4441 24.29 26.61 24.2213 26.7323 24.099C26.8546 23.9767 26.9233 23.8108 26.9233 23.6378C26.9233 23.4648 26.8546 23.2989 26.7323 23.1766C26.61 23.0543 26.4441 22.9856 26.2711 22.9856L19.8856 22.9856C19.7126 22.9856 19.5467 23.0543 19.4244 23.1766C19.3021 23.2989 19.2334 23.4648 19.2334 23.6378Z" fill="#8C96A9"/>
  <path d="M12.2417 23.6378C12.2417 23.7235 12.2585 23.8083 12.2912 23.8874C12.324 23.9666 12.372 24.0385 12.4326 24.0991C12.4932 24.1596 12.5651 24.2077 12.6443 24.2404C12.7234 24.2732 12.8082 24.29 12.8939 24.29L15.4479 24.29C15.6209 24.29 15.7868 24.2213 15.9091 24.099C16.0314 23.9767 16.1001 23.8108 16.1001 23.6378C16.1001 23.4648 16.0314 23.2989 15.9091 23.1766C15.7868 23.0543 15.6209 22.9856 15.4479 22.9856L12.8939 22.9856C12.8082 22.9855 12.7234 23.0024 12.6443 23.0351C12.5651 23.0679 12.4932 23.1159 12.4326 23.1765C12.372 23.2371 12.324 23.309 12.2912 23.3881C12.2585 23.4673 12.2417 23.5521 12.2417 23.6378Z" fill="#8C96A9"/>
  <path d="M34.2192 33.2452C34.2191 33.0722 34.1504 32.9064 34.0281 32.7841C33.9058 32.6618 33.74 32.5931 33.567 32.593L19.8854 32.593C19.7125 32.593 19.5466 32.6617 19.4243 32.784C19.302 32.9063 19.2332 33.0722 19.2332 33.2452C19.2332 33.4181 19.302 33.584 19.4243 33.7063C19.5466 33.8286 19.7125 33.8973 19.8854 33.8973L33.567 33.8974C33.74 33.8974 33.9059 33.8286 34.0282 33.7063C34.1505 33.584 34.2192 33.4181 34.2192 33.2452Z" fill="#8C96A9"/>
  <path d="M24.6816 37.9242C24.6816 37.7513 24.6129 37.5854 24.4906 37.4631C24.3683 37.3407 24.2024 37.272 24.0294 37.272L5.95726 37.272C5.78428 37.272 5.61839 37.3407 5.49608 37.4631C5.37377 37.5854 5.30506 37.7513 5.30506 37.9242C5.30506 38.0972 5.37377 38.2631 5.49608 38.3854C5.61839 38.5077 5.78428 38.5764 5.95726 38.5764L24.0283 38.5764C24.1141 38.5766 24.199 38.5598 24.2783 38.5271C24.3575 38.4944 24.4295 38.4464 24.4902 38.3858C24.5509 38.3252 24.599 38.2533 24.6319 38.1741C24.6647 38.0949 24.6816 38.01 24.6816 37.9242Z" fill="#8C96A9"/>
  <path d="M14.3208 33.2452C14.3207 33.0722 14.252 32.9064 14.1297 32.7841C14.0074 32.6618 13.8415 32.5931 13.6686 32.593L11.9136 32.593C11.7407 32.593 11.5748 32.6617 11.4525 32.784C11.3301 32.9063 11.2614 33.0722 11.2614 33.2452C11.2614 33.4181 11.3301 33.584 11.4525 33.7063C11.5748 33.8286 11.7407 33.8974 11.9136 33.8974L13.6686 33.8974C13.8416 33.8974 14.0075 33.8286 14.1298 33.7063C14.2521 33.584 14.3208 33.4181 14.3208 33.2452Z" fill="#8C96A9"/>
  <path d="M31.8628 4.5485C31.8627 4.37556 31.7939 4.20972 31.6717 4.08743C31.5494 3.96515 31.3835 3.8964 31.2106 3.8963L17.9091 3.8963C17.7362 3.8963 17.5703 3.96501 17.448 4.08732C17.3256 4.20964 17.2569 4.37552 17.2569 4.5485C17.2569 4.72147 17.3256 4.88736 17.448 5.00967C17.5703 5.13198 17.7362 5.20069 17.9091 5.20069L31.2106 5.2007C31.3836 5.2007 31.5495 5.13198 31.6718 5.00967C31.7941 4.88736 31.8628 4.72147 31.8628 4.5485Z" fill="#8C96A9"/>
  <path d="M15.6445 9.22758C15.6445 9.0546 15.5758 8.88871 15.4535 8.7664C15.3312 8.64409 15.1653 8.57538 14.9923 8.57538L11.7243 8.57538C11.5513 8.57538 11.3854 8.64409 11.2631 8.7664C11.1408 8.88871 11.0721 9.0546 11.0721 9.22758C11.0721 9.40055 11.1408 9.56644 11.2631 9.68875C11.3854 9.81106 11.5513 9.87977 11.7243 9.87977L14.992 9.87977C15.0776 9.87982 15.1625 9.86299 15.2417 9.83023C15.3208 9.79748 15.3928 9.74945 15.4534 9.68888C15.514 9.62831 15.5621 9.5564 15.5949 9.47725C15.6277 9.39809 15.6445 9.31325 15.6445 9.22758Z" fill="#8C96A9"/>
</svg>
