<svg width="18" height="18" viewBox="0 0 18 18" fill="none" xmlns="http://www.w3.org/2000/svg">
  <path d="M8.99986 0.5C13.6944 0.5 17.4997 4.30563 17.4997 8.99995C17.4997 13.6944 13.6944 17.5 8.99986 17.5C4.30536 17.5 0.5 13.6944 0.5 8.99995C0.5 4.30563 4.30536 0.5 8.99986 0.5Z" stroke="#C7CFD7"/>
  <path d="M8 5.05979C8 4.42862 8.33333 4 9 4C9.66667 4 10 4.42862 10 5.05979C10 5.36055 9.91566 5.59565 9.74699 5.7651C9.58233 5.9303 9.33333 6.0129 9 6.0129C8.33333 6.0129 8 5.6952 8 5.05979ZM9.91566 14H8.07831V6.89612H9.91566V14Z" fill="#8C96A9"/>
</svg>
