<svg width="36" height="32" viewBox="0 0 36 32" fill="none" xmlns="http://www.w3.org/2000/svg">
  <path fill-rule="evenodd" clip-rule="evenodd" d="M5.28679 5.84946H11.8954V26.4947C11.8954 28.0149 10.712 29.2473 9.2518 29.2473H5.28679C3.82653 29.2473 2.64321 28.0149 2.64321 26.4947V8.60211C2.64321 7.08192 3.82653 5.84946 5.28679 5.84946Z" fill="#718CAD" fill-opacity="0.01"/>
  <path fill-rule="evenodd" clip-rule="evenodd" d="M5.28679 5.84946H11.8954V26.4947C11.8954 28.0149 10.712 29.2473 9.2518 29.2473H5.28679C3.82653 29.2473 2.64321 28.0149 2.64321 26.4947V8.60211C2.64321 7.08192 3.82653 5.84946 5.28679 5.84946Z" fill="#8C96A9"/>
  <path fill-rule="evenodd" clip-rule="evenodd" d="M26.3081 5.8493H33.2306C34.7604 5.8493 36.0001 7.08177 36.0001 8.60196V26.4945C36.0001 28.0147 34.7604 29.2472 33.2306 29.2472H29.0768C27.5478 29.2472 26.3081 28.0147 26.3081 26.4945V5.8493Z" fill="#718CAD" fill-opacity="0.01"/>
  <path fill-rule="evenodd" clip-rule="evenodd" d="M26.3081 5.8493H33.2306C34.7604 5.8493 36.0001 7.08177 36.0001 8.60196V26.4945C36.0001 28.0147 34.7604 29.2472 33.2306 29.2472H29.0768C27.5478 29.2472 26.3081 28.0147 26.3081 26.4945V5.8493Z" fill="#8C96A9"/>
  <path d="M13.5948 1.79035H19.7034V22.7259H13.5948C12.3999 22.7259 11.4512 21.7829 11.4512 20.6452V3.87097C11.4512 2.73327 12.3999 1.79035 13.5948 1.79035Z" fill="#718CAD" fill-opacity="0.01" stroke="#8C96A9"/>
  <path d="M18.5002 1.79035H24.9227C26.2102 1.79035 27.1922 2.75456 27.1922 3.87097V20.6452C27.1922 21.7617 26.2102 22.7259 24.9227 22.7259H18.5002V1.79035Z" fill="#718CAD" fill-opacity="0.01" stroke="#8C96A9"/>
</svg>
