<svg width="18" height="22" viewBox="0 0 18 22" fill="none" xmlns="http://www.w3.org/2000/svg">
  <path d="M11.4884 8.24609C11.2227 8.24609 11.0073 8.45577 11.0073 8.71448V17.5669C11.0073 17.8255 11.2227 18.0353 11.4884 18.0353C11.7541 18.0353 11.9694 17.8255 11.9694 17.5669V8.71448C11.9694 8.45577 11.7541 8.24609 11.4884 8.24609Z" fill="#3A84E3"/>
  <path d="M5.8121 8.24609C5.5464 8.24609 5.33105 8.45577 5.33105 8.71448V17.5669C5.33105 17.8255 5.5464 18.0353 5.8121 18.0353C6.0778 18.0353 6.29314 17.8255 6.29314 17.5669V8.71448C6.29314 8.45577 6.0778 8.24609 5.8121 8.24609Z" fill="#3A84E3"/>
  <path d="M8.48104 8.24609C8.21534 8.24609 8 8.45577 8 8.71448V17.5669C8 17.8255 8.21534 18.0353 8.48104 18.0353C8.74674 18.0353 8.96209 17.8255 8.96209 17.5669V8.71448C8.96209 8.45577 8.74674 8.24609 8.48104 8.24609Z" fill="#3A84E3"/>
  <path d="M1.67507 6.95419V18.4942C1.67507 19.1762 1.93194 19.8168 2.38067 20.2764C2.82732 20.7373 3.44892 20.9989 4.09945 21H13.2009C13.8516 20.9989 14.4732 20.7373 14.9197 20.2764C15.3684 19.8168 15.6253 19.1762 15.6253 18.4942V6.95419C16.5173 6.72366 17.0953 5.8846 16.976 4.99339C16.8564 4.10236 16.0768 3.43583 15.1538 3.43565H12.6909V2.85017C12.6937 2.35782 12.4938 1.88505 12.1359 1.53724C11.7779 1.18961 11.2916 0.996036 10.7859 1.00006H6.51443C6.00877 0.996036 5.52247 1.18961 5.16451 1.53724C4.80654 1.88505 4.60661 2.35782 4.60943 2.85017V3.43565H2.14653C1.22353 3.43583 0.443909 4.10236 0.3244 4.99339C0.205079 5.8846 0.783081 6.72366 1.67507 6.95419ZM13.2009 20.0632H4.09945C3.27698 20.0632 2.63716 19.3753 2.63716 18.4942V6.99536H14.6632V18.4942C14.6632 19.3753 14.0234 20.0632 13.2009 20.0632ZM5.57151 2.85017C5.56832 2.60628 5.66678 2.37154 5.84454 2.19938C6.02211 2.02721 6.26376 1.93262 6.51443 1.93683H10.7859C11.0366 1.93262 11.2782 2.02721 11.4558 2.19938C11.6336 2.37136 11.732 2.60628 11.7288 2.85017V3.43565H5.57151V2.85017ZM2.14653 4.37242H15.1538C15.632 4.37242 16.0197 4.74987 16.0197 5.21551C16.0197 5.68114 15.632 6.05859 15.1538 6.05859H2.14653C1.66831 6.05859 1.28066 5.68114 1.28066 5.21551C1.28066 4.74987 1.66831 4.37242 2.14653 4.37242Z" fill="#3A84E3" stroke="#3A84E3" stroke-width="0.5"/>
</svg>
