<svg width="44" height="44" viewBox="0 0 44 44" fill="none" xmlns="http://www.w3.org/2000/svg">
  <path d="M43.3523 6.49049H29.7907V0.647679C29.7907 0.562611 29.774 0.478368 29.7415 0.399766C29.7089 0.321164 29.6612 0.249745 29.6011 0.189592C29.5409 0.12944 29.4695 0.0817344 29.3909 0.0492027C29.3123 0.016671 29.228 -4.85462e-05 29.143 1.05874e-07H14.857C14.772 -4.85462e-05 14.6877 0.016671 14.6091 0.0492027C14.5305 0.0817344 14.4591 0.12944 14.3989 0.189592C14.3388 0.249745 14.2911 0.321164 14.2585 0.399766C14.226 0.478368 14.2093 0.562611 14.2093 0.647679V3.24506H0.647679C0.475904 3.24506 0.311164 3.3133 0.189701 3.43476C0.0682373 3.55622 0 3.72096 0 3.89274V40.1073C0 40.279 0.0682373 40.4438 0.189701 40.5652C0.311164 40.6867 0.475904 40.7549 0.647679 40.7549H14.857C15.0288 40.7549 15.1935 40.6867 15.315 40.5652C15.4365 40.4438 15.5047 40.279 15.5047 40.1073V37.5095H28.4953V43.3523C28.4952 43.4374 28.512 43.5216 28.5445 43.6002C28.577 43.6788 28.6247 43.7503 28.6849 43.8104C28.745 43.8706 28.8165 43.9183 28.8951 43.9508C28.9737 43.9833 29.0579 44 29.143 44H43.3523C43.4374 44 43.5216 43.9833 43.6002 43.9508C43.6788 43.9183 43.7503 43.8706 43.8104 43.8104C43.8706 43.7503 43.9183 43.6788 43.9508 43.6002C43.9833 43.5216 44 43.4374 44 43.3523V7.13817C44 6.96639 43.9318 6.80165 43.8103 6.68019C43.6888 6.55872 43.5241 6.49049 43.3523 6.49049ZM14.2093 39.4596H6.15962V33.6164C6.15962 33.4446 6.09138 33.2799 5.96991 33.1584C5.84845 33.037 5.68371 32.9687 5.51194 32.9687C5.34016 32.9687 5.17542 33.037 5.05396 33.1584C4.93249 33.2799 4.86426 33.4446 4.86426 33.6164V39.4596H1.29536V4.54042H4.86426V8.65707C4.86426 8.82884 4.93249 8.99358 5.05396 9.11504C5.17542 9.23651 5.34016 9.30475 5.51194 9.30475C5.68371 9.30475 5.84845 9.23651 5.96991 9.11504C6.09138 8.99358 6.15962 8.82884 6.15962 8.65707V4.54042H9.50978V23.5026C9.50978 23.6744 9.57802 23.8391 9.69948 23.9606C9.82095 24.0821 9.98569 24.1503 10.1575 24.1503C10.3292 24.1503 10.494 24.0821 10.6154 23.9606C10.7369 23.8391 10.8051 23.6744 10.8051 23.5026V4.54042H14.2101V39.4596H14.2093ZM15.5047 1.29536H18.8852V8.65707C18.8852 8.82884 18.9535 8.99358 19.0749 9.11504C19.1964 9.23651 19.3611 9.30475 19.5329 9.30475C19.7047 9.30475 19.8694 9.23651 19.9909 9.11504C20.1123 8.99358 20.1806 8.82884 20.1806 8.65707V1.29536H23.8194V15.1627C23.8194 15.3345 23.8877 15.4992 24.0091 15.6207C24.1306 15.7422 24.2953 15.8104 24.4671 15.8104C24.6389 15.8104 24.8036 15.7422 24.9251 15.6207C25.0465 15.4992 25.1148 15.3345 25.1148 15.1627V1.29536H28.4953V36.2142H20.1806V22.7402C20.1806 22.5684 20.1123 22.4037 19.9909 22.2822C19.8694 22.1608 19.7047 22.0925 19.5329 22.0925C19.3611 22.0925 19.1964 22.1608 19.0749 22.2822C18.9535 22.4037 18.8852 22.5684 18.8852 22.7402V36.2119H15.5047V1.29536ZM42.7046 42.7046H34.6575V36.8618C34.6575 36.6901 34.5893 36.5253 34.4678 36.4039C34.3463 36.2824 34.1816 36.2142 34.0098 36.2142C33.838 36.2142 33.6733 36.2824 33.5518 36.4039C33.4304 36.5253 33.3621 36.6901 33.3621 36.8618V42.7046H29.7907V7.78585H38.0069V15.9766C38.0069 16.1484 38.0752 16.3131 38.1966 16.4346C38.3181 16.556 38.4828 16.6243 38.6546 16.6243C38.8264 16.6243 38.9911 16.556 39.1126 16.4346C39.2341 16.3131 39.3023 16.1484 39.3023 15.9766V7.78585H42.7072L42.7046 42.7046Z" fill="#8C96A9"/>
  <path d="M19.5329 16.9693C19.7047 16.9693 19.8694 16.901 19.9909 16.7796C20.1124 16.6581 20.1806 16.4933 20.1806 16.3216V13.0761C20.1806 12.9044 20.1124 12.7396 19.9909 12.6182C19.8694 12.4967 19.7047 12.4285 19.5329 12.4285C19.3612 12.4285 19.1964 12.4967 19.075 12.6182C18.9535 12.7396 18.8853 12.9044 18.8853 13.0761V16.3216C18.8853 16.4933 18.9535 16.6581 19.075 16.7796C19.1964 16.901 19.3612 16.9693 19.5329 16.9693Z" fill="#8C96A9"/>
  <path d="M24.467 25.8932C24.6388 25.8932 24.8035 25.8249 24.925 25.7035C25.0465 25.582 25.1147 25.4173 25.1147 25.2455V18.9041C25.1147 18.7324 25.0465 18.5676 24.925 18.4462C24.8035 18.3247 24.6388 18.2565 24.467 18.2565C24.2952 18.2565 24.1305 18.3247 24.009 18.4462C23.8876 18.5676 23.8193 18.7324 23.8193 18.9041V25.2455C23.8193 25.4173 23.8876 25.582 24.009 25.7035C24.1305 25.8249 24.2952 25.8932 24.467 25.8932Z" fill="#8C96A9"/>
  <path d="M24.467 32.8364C24.5521 32.8364 24.6363 32.8197 24.7149 32.7872C24.7935 32.7546 24.865 32.7069 24.9251 32.6468C24.9853 32.5866 25.033 32.5152 25.0655 32.4366C25.098 32.358 25.1147 32.2738 25.1147 32.1887V29.6524C25.1147 29.4806 25.0465 29.3159 24.925 29.1944C24.8035 29.0729 24.6388 29.0047 24.467 29.0047C24.2952 29.0047 24.1305 29.0729 24.009 29.1944C23.8876 29.3159 23.8193 29.4806 23.8193 29.6524V32.1887C23.8193 32.2738 23.836 32.358 23.8685 32.4366C23.9011 32.5152 23.9488 32.5866 24.0089 32.6468C24.0691 32.7069 24.1405 32.7546 24.2191 32.7872C24.2977 32.8197 24.3819 32.8364 24.467 32.8364Z" fill="#8C96A9"/>
  <path d="M34.008 11.0111C33.8363 11.0112 33.6716 11.0795 33.5502 11.2009C33.4287 11.3224 33.3604 11.487 33.3604 11.6588V25.2456C33.3604 25.4174 33.4286 25.5821 33.5501 25.7036C33.6715 25.8251 33.8363 25.8933 34.008 25.8933C34.1798 25.8933 34.3445 25.8251 34.466 25.7036C34.5875 25.5821 34.6557 25.4174 34.6557 25.2456V11.6588C34.6557 11.487 34.5875 11.3223 34.466 11.2008C34.3445 11.0793 34.1798 11.0111 34.008 11.0111Z" fill="#8C96A9"/>
  <path d="M38.6545 20.4826C38.4827 20.4826 38.318 20.5508 38.1965 20.6723C38.0751 20.7938 38.0068 20.9585 38.0068 21.1303V39.0773C38.0068 39.2491 38.0751 39.4138 38.1965 39.5353C38.318 39.6567 38.4827 39.725 38.6545 39.725C38.8263 39.725 38.991 39.6567 39.1125 39.5353C39.234 39.4138 39.3022 39.2491 39.3022 39.0773V21.1314C39.3023 21.0462 39.2857 20.9619 39.2532 20.8832C39.2207 20.8045 39.1731 20.733 39.1129 20.6727C39.0527 20.6124 38.9813 20.5646 38.9026 20.532C38.824 20.4994 38.7397 20.4826 38.6545 20.4826Z" fill="#8C96A9"/>
  <path d="M34.008 30.7712C33.8363 30.7713 33.6716 30.8396 33.5502 30.961C33.4287 31.0825 33.3604 31.2472 33.3604 31.4189V33.1617C33.3604 33.3335 33.4286 33.4983 33.5501 33.6197C33.6715 33.7412 33.8363 33.8094 34.008 33.8094C34.1798 33.8094 34.3445 33.7412 34.466 33.6197C34.5875 33.4983 34.6557 33.3335 34.6557 33.1617V31.4189C34.6557 31.2471 34.5875 31.0824 34.466 30.9609C34.3445 30.8395 34.1798 30.7712 34.008 30.7712Z" fill="#8C96A9"/>
  <path d="M5.50998 13.3512C5.33824 13.3513 5.17356 13.4196 5.05211 13.541C4.93067 13.6624 4.8624 13.8271 4.8623 13.9989V27.2082C4.8623 27.38 4.93054 27.5447 5.05201 27.6662C5.17347 27.7877 5.33821 27.8559 5.50998 27.8559C5.68176 27.8559 5.8465 27.7877 5.96796 27.6662C6.08943 27.5447 6.15766 27.38 6.15766 27.2082V13.9989C6.15766 13.8271 6.08943 13.6624 5.96796 13.5409C5.8465 13.4194 5.68176 13.3512 5.50998 13.3512Z" fill="#8C96A9"/>
  <path d="M10.1565 29.4572C9.98469 29.4572 9.81995 29.5254 9.69849 29.6469C9.57703 29.7683 9.50879 29.9331 9.50879 30.1048V33.3503C9.50879 33.522 9.57703 33.6868 9.69849 33.8082C9.81995 33.9297 9.98469 33.9979 10.1565 33.9979C10.3282 33.9979 10.493 33.9297 10.6144 33.8082C10.7359 33.6868 10.8041 33.522 10.8041 33.3503V30.1052C10.8042 30.0201 10.7875 29.9359 10.755 29.8572C10.7224 29.7786 10.6747 29.7072 10.6146 29.647C10.5544 29.5868 10.483 29.5391 10.4044 29.5065C10.3258 29.4739 10.2416 29.4572 10.1565 29.4572Z" fill="#8C96A9"/>
</svg>
