<svg width="18" height="18" viewBox="0 0 18 18" fill="none" xmlns="http://www.w3.org/2000/svg">
<path d="M18 8.99887C17.9996 8.81631 17.9048 8.64693 17.7493 8.55109L15.92 7.42342L17.7513 6.28363C17.9057 6.18751 17.9997 6.01859 18 5.83672C18.0002 5.65483 17.9068 5.48562 17.7526 5.38905L9.27998 0.0804723C9.10874 -0.0268241 8.89123 -0.0268241 8.71998 0.0804723L0.247359 5.38905C0.0932345 5.48562 -0.000245608 5.65483 4.84691e-07 5.83672C0.000281734 6.01862 0.094254 6.18755 0.248695 6.28363L2.06739 7.41558L0.247886 8.55285C0.0935509 8.64932 -0.00014014 8.81852 3.56408e-05 9.00053C0.000211421 9.18253 0.0942189 9.35156 0.24873 9.44775L2.06743 10.5797L0.247886 11.7169C0.093797 11.8132 0.000141109 11.9821 3.56408e-05 12.1638C-6.98275e-05 12.3455 0.0934103 12.5145 0.247394 12.611L8.72002 17.9195C8.80566 17.9732 8.90283 18 9 18C9.09717 18 9.19438 17.9732 9.27998 17.9195L17.7526 12.611C17.9071 12.5142 18.0006 12.3444 18 12.1622C17.9993 11.9799 17.9045 11.8108 17.7493 11.7152L15.92 10.5875L17.7513 9.44771C17.9063 9.35124 18.0004 9.18144 18 8.99887ZM1.52296 5.83451L9 1.14971L16.477 5.83451C16.4052 5.87923 9.21428 10.3549 9 10.4883L1.52296 5.83451ZM16.4736 12.1677L9 16.8504L1.52149 12.1646L3.06445 11.2003L8.72135 14.7212C8.80664 14.7743 8.90332 14.8008 9 14.8008C9.09668 14.8008 9.19336 14.7743 9.27865 14.7212L14.9199 11.21L16.4736 12.1677ZM9 13.6523L1.52384 8.99912L3.06445 8.03623L8.72135 11.5571C8.80664 11.6102 8.90332 11.6367 9 11.6367C9.09668 11.6367 9.19336 11.6102 9.27865 11.5571L14.9199 8.04593L16.4712 9.00218C16.4283 9.02886 9.19793 13.5291 9 13.6523Z" fill="#8C96A9"/>
</svg>
