<svg width="36" height="39" viewBox="0 0 36 39" fill="none" xmlns="http://www.w3.org/2000/svg">
<path d="M0 3.52026V6.77062V13.2703V16.5206H36V13.2703V6.77062V3.52026H0ZM1.49964 8.3953H5.99967C6.41389 8.3953 6.74998 8.03226 6.74998 7.58361C6.74998 7.13373 6.41382 6.7707 5.99967 6.7707H1.49964V5.14601H34.5004V8.39523H28.4996C26.2815 8.39523 24.9807 9.4295 24.2798 10.2983C23.8832 10.7887 23.6316 11.2767 23.4789 11.6457H1.49964V8.3953ZM1.49964 14.896V13.2703H34.5004V14.896H1.49964ZM34.5004 11.6457H25.2027C25.7025 10.9006 26.6792 10.0211 28.4997 10.0211H34.5004V11.6457Z" fill="#8C96A9"/>
<path d="M0 23.8343V30.3327V33.5843H36V30.3327V23.8343V20.5834H0V23.8343ZM1.49964 22.2086H15.2952C15.2348 22.2989 15.1667 22.3917 15.0919 22.4869C14.3701 23.3796 13.3297 23.8343 12.0003 23.8343H1.49964V22.2086ZM1.49964 25.4577H12.0003C14.2185 25.4577 15.5193 24.4246 16.2202 23.5557C16.6168 23.0653 16.8684 22.5773 17.0211 22.2085H34.5004V23.0201H31.5C31.0858 23.0201 30.7496 23.3843 30.7496 23.8343C30.7496 24.2818 31.0858 24.646 31.5 24.646H34.5004V26.2718H27.0022C26.5869 26.2718 26.2518 26.6336 26.2518 27.0835C26.2518 27.5333 26.5869 27.8952 27.0022 27.8952H34.5004V28.7093H1.49964V25.4577ZM1.49964 30.3327H34.5004V31.9585H1.49964V30.3327Z" fill="#8C96A9"/>
</svg>
