<svg width="50" height="36" viewBox="0 0 50 36" fill="none" xmlns="http://www.w3.org/2000/svg">
<path d="M8 6V8.50021V13.4998V16H44V13.4998V8.50021V6H8ZM9.49964 9.74993H13.9997C14.4139 9.74993 14.75 9.47067 14.75 9.12556C14.75 8.77952 14.4138 8.50026 13.9997 8.50026H9.49964V7.25054H42.5004V9.74987H36.4996C34.2815 9.74987 32.9807 10.5454 32.2798 11.2137C31.8832 11.591 31.6316 11.9663 31.4789 12.2501H9.49964V9.74993ZM9.49964 14.7503V13.4998H42.5004V14.7503H9.49964ZM42.5004 12.2501H33.2027C33.7025 11.677 34.6792 11.0005 36.4997 11.0005H42.5004V12.2501Z" fill="#8C96A9"/>
<path d="M8 22.5005V27.4989V30H44V27.4989V22.5005V20H8V22.5005ZM9.49964 21.2501H23.2952C23.2348 21.3196 23.1667 21.3909 23.0919 21.4642C22.3701 22.1508 21.3297 22.5005 20.0003 22.5005H9.49964V21.2501ZM9.49964 23.7492H20.0003C22.2185 23.7492 23.5193 22.9546 24.2202 22.2862C24.6168 21.909 24.8684 21.5337 25.0211 21.25H42.5004V21.8743H39.5C39.0858 21.8743 38.7496 22.1544 38.7496 22.5005C38.7496 22.8447 39.0858 23.1248 39.5 23.1248H42.5004V24.3754H35.0022C34.5869 24.3754 34.2518 24.6537 34.2518 24.9997C34.2518 25.3457 34.5869 25.624 35.0022 25.624H42.5004V26.2502H9.49964V23.7492ZM9.49964 27.4989H42.5004V28.7495H9.49964V27.4989Z" fill="#8C96A9"/>
</svg>
