<svg width="18" height="18" viewBox="0 0 18 18" fill="none" xmlns="http://www.w3.org/2000/svg">
<path d="M0 1.62476V3.12492V6.12476V7.62492H18V6.12476V3.12492V1.62476H0ZM0.749818 3.87477H2.99984C3.20694 3.87477 3.37499 3.70722 3.37499 3.50015C3.37499 3.29251 3.20691 3.12496 2.99984 3.12496H0.749818V2.3751H17.2502V3.87474H14.2498C13.1407 3.87474 12.4903 4.35209 12.1399 4.75309C11.9416 4.97943 11.8158 5.20464 11.7394 5.37494H0.749818V3.87477ZM0.749818 6.8751V6.12476H17.2502V6.8751H0.749818ZM17.2502 5.37494H12.6013C12.8513 5.03107 13.3396 4.62512 14.2499 4.62512H17.2502V5.37494Z" fill="#8C96A9"/>
<path d="M0 11.5004V14.4997V16.0004H18V14.4997V11.5004V10H0V11.5004ZM0.749818 10.7501H7.6476C7.6174 10.7918 7.58333 10.8346 7.54596 10.8786C7.18504 11.2906 6.66487 11.5004 6.00016 11.5004H0.749818V10.7501ZM0.749818 12.2497H6.00016C7.10925 12.2497 7.75964 11.7729 8.11008 11.3718C8.3084 11.1455 8.43419 10.9203 8.51055 10.7501H17.2502V11.1247H15.75C15.5429 11.1247 15.3748 11.2927 15.3748 11.5004C15.3748 11.707 15.5429 11.875 15.75 11.875H17.2502V12.6254H13.5011C13.2935 12.6254 13.1259 12.7924 13.1259 13C13.1259 13.2077 13.2935 13.3747 13.5011 13.3747H17.2502V13.7504H0.749818V12.2497ZM0.749818 14.4997H17.2502V15.2501H0.749818V14.4997Z" fill="#8C96A9"/>
</svg>
