<svg width="24" height="20" viewBox="0 0 24 20" fill="none" xmlns="http://www.w3.org/2000/svg">
<path d="M23.6 12.8C22.9373 12.8 22.4 12.2628 22.4 11.6C22.4 11.3791 22.2209 11.2 22 11.2C21.7791 11.2 21.6 11.3791 21.6 11.6C21.5979 12.1067 21.2778 12.5575 20.8 12.7264V0.800024C20.8 0.579124 20.6209 0.400024 20.4 0.400024H3.6C3.3791 0.400024 3.2 0.579124 3.2 0.800024V6.72642C2.72225 6.55752 2.4021 6.10672 2.4 5.60002C2.4 5.37912 2.2209 5.20002 2 5.20002C1.7791 5.20002 1.6 5.37912 1.6 5.60002C1.6 6.26277 1.06275 6.80002 0.4 6.80002C0.1791 6.80002 0 6.97912 0 7.20002C0 7.42092 0.1791 7.60002 0.4 7.60002C1.06275 7.60002 1.6 8.13727 1.6 8.80002C1.6 9.02092 1.7791 9.20002 2 9.20002C2.2209 9.20002 2.4 9.02092 2.4 8.80002C2.4021 8.29332 2.72225 7.84252 3.2 7.67362V19.2C3.2 19.4209 3.3791 19.6 3.6 19.6H20.4C20.6209 19.6 20.8 19.4209 20.8 19.2V13.6736C21.2778 13.8425 21.5979 14.2933 21.6 14.8C21.6 15.0209 21.7791 15.2 22 15.2C22.2209 15.2 22.4 15.0209 22.4 14.8C22.4 14.1373 22.9373 13.6 23.6 13.6C23.8209 13.6 24 13.4209 24 13.2C24 12.9791 23.8209 12.8 23.6 12.8ZM2 7.60002C1.8862 7.44847 1.75155 7.31382 1.6 7.20002C1.75155 7.08622 1.8862 6.95157 2 6.80002C2.1138 6.95157 2.24845 7.08622 2.4 7.20002C2.24845 7.31382 2.1138 7.44847 2 7.60002ZM20 16.4V18.8H11.7656L14.6828 15.8828C14.8363 15.7239 14.8319 15.4707 14.673 15.3172C14.518 15.1675 14.2722 15.1675 14.1172 15.3172L10.6344 18.8H9.3656L14.6828 13.4828C14.8363 13.3239 14.8319 13.0707 14.673 12.9172C14.518 12.7675 14.2722 12.7675 14.1172 12.9172L8.2344 18.8H4V1.20002H15.8344L12.9172 4.11722C12.7583 4.27072 12.7539 4.52392 12.9074 4.68282C13.0609 4.84172 13.3141 4.84612 13.473 4.69262C13.4763 4.68942 13.4796 4.68612 13.4828 4.68282L16.9656 1.20002H18.2344L12.9172 6.51722C12.7583 6.67072 12.7539 6.92392 12.9074 7.08282C13.0609 7.24172 13.3141 7.24612 13.473 7.09262C13.4763 7.08942 13.4796 7.08612 13.4828 7.08282L19.3656 1.20002H20V16.4ZM22 13.6C21.8862 13.4485 21.7516 13.3138 21.6 13.2C21.7516 13.0862 21.8862 12.9516 22 12.8C22.1138 12.9516 22.2485 13.0862 22.4 13.2C22.2485 13.3138 22.1138 13.4485 22 13.6Z" fill="#8C96A9"/>
</svg>
