<svg width="36" height="36" viewBox="0 0 36 36" fill="none" xmlns="http://www.w3.org/2000/svg">
<rect x="1" y="1" width="34" height="34" rx="2" stroke="#8C96A9" stroke-width="2"/>
<path d="M11.2681 21.8398L25.7198 12.511L26.7317 13.8705L12.2799 23.1994L11.2681 21.8398Z" fill="#8C96A9"/>
<path d="M18.7295 11.3311L26.9878 6.00012L27.9997 7.35971L19.7413 12.6906L18.7295 11.3311Z" fill="#8C96A9"/>
<path d="M12.5352 15.3286L16.665 12.6627L17.677 14.0225L13.5472 16.6884L12.5352 15.3286Z" fill="#8C96A9"/>
<path d="M12.1 7.6C10.6088 7.6 9.4 6.39119 9.4 4.9C9.4 4.40297 8.99703 4 8.5 4C8.00297 4 7.6 4.40297 7.6 4.9C7.6 6.39119 6.39119 7.6 4.9 7.6C4.40297 7.6 4 8.00297 4 8.5C4 8.99703 4.40297 9.4 4.9 9.4C6.39119 9.4 7.6 10.6088 7.6 12.1C7.6 12.597 8.00297 13 8.5 13C8.99703 13 9.4 12.597 9.4 12.1C9.4 10.6088 10.6088 9.4 12.1 9.4C12.597 9.4 13 8.99703 13 8.5C13 8.00297 12.597 7.6 12.1 7.6ZM8.5 9.4C8.24395 9.05901 7.94099 8.75605 7.6 8.5C7.94099 8.24395 8.24395 7.94099 8.5 7.6C8.75605 7.94099 9.05901 8.24395 9.4 8.5C9.05901 8.75605 8.75605 9.05901 8.5 9.4Z" fill="#8C96A9"/>
<path d="M32.1 27.6C30.6088 27.6 29.4 26.3912 29.4 24.9C29.4 24.403 28.997 24 28.5 24C28.003 24 27.6 24.403 27.6 24.9C27.6 26.3912 26.3912 27.6 24.9 27.6C24.403 27.6 24 28.003 24 28.5C24 28.997 24.403 29.4 24.9 29.4C26.3912 29.4 27.6 30.6088 27.6 32.1C27.6 32.597 28.003 33 28.5 33C28.997 33 29.4 32.597 29.4 32.1C29.4 30.6088 30.6088 29.4 32.1 29.4C32.597 29.4 33 28.997 33 28.5C33 28.003 32.597 27.6 32.1 27.6ZM28.5 29.4C28.2439 29.059 27.941 28.7561 27.6 28.5C27.941 28.2439 28.2439 27.941 28.5 27.6C28.7561 27.941 29.059 28.2439 29.4 28.5C29.059 28.7561 28.7561 29.059 28.5 29.4Z" fill="#8C96A9"/>
<path d="M10 28.3516L17.2255 23.6873L18.2374 25.0469L11.0119 29.7111L10 28.3516Z" fill="#8C96A9"/>
<path d="M19.2915 22.3545L24.4528 19.0228L25.4646 20.3824L20.3034 23.7141L19.2915 22.3545Z" fill="#8C96A9"/>
</svg>
